# xmcd
#
# Track frame offsets:
#	150
#	14634
#	31587
#	47905
#	62485
#	85070
#	103620
#	121090
#	135420
#	156236
#	175365
#	194132
#	211542
#	233615
#
# Disc length: 3228 seconds
# Revision: 1
# Processed by: cddbd v1.5.2PL0 Copyright (c) Steve Scherf et al.
# Submitted via: dBpowerAMP V12.0
#
DISCID=b00c9a0e
DTITLE=Alan Gerber - The Grand And The Small
DYEAR=2013
DGENRE=Folk/Blues
TTITLE0=Zombie Nation
TTITLE1=Should Be Happy
TTITLE2=Flow Along
TTITLE3=Leave Your Old Fish At Home
TTITLE4=Gordian Knot
TTITLE5=Believe
TTITLE6=Funky Knees
TTITLE7=Bonehead Stew
TTITLE8=Made That Way
TTITLE9=Tied On
TTITLE10=Hope In ¾ Time
TTITLE11=Me And My Dog
TTITLE12=Water Under Wind
TTITLE13=Weasel Jerky
EXTD=
EXTT0=
EXTT1=
EXTT2=
EXTT3=
EXTT4=
EXTT5=
EXTT6=
EXTT7=
EXTT8=
EXTT9=
EXTT10=
EXTT11=
EXTT12=
EXTT13=
PLAYORDER=
